{
  "accessors": [
    {
      "bufferView": 0,
      "componentType": 5125,
      "count": 62520,
      "type": "SCALAR"
    },
    {
      "bufferView": 1,
      "componentType": 5126,
      "count": 12473,
      "max": [
        0.976594746112823,
        0.765165150165558,
        0.125605165958405
      ],
      "min": [
        -0.976594805717468,
        -0.999999940395355,
        -0.156191289424896
      ],
      "type": "VEC3"
    },
    {
      "bufferView": 2,
      "componentType": 5126,
      "count": 12473,
      "type": "VEC3"
    },
    {
      "bufferView": 3,
      "componentType": 5126,
      "count": 12473,
      "type": "VEC2"
    },
    {
      "bufferView": 4,
      "componentType": 5125,
      "count": 84816,
      "type": "SCALAR"
    },
    {
      "bufferView": 5,
      "componentType": 5126,
      "count": 15901,
      "max": [
        0.99770712852478,
        0.99999988079071,
        0.177251428365707
      ],
      "min": [
        -0.997707188129425,
        -0.999967634677887,
        -0.17725145816803
      ],
      "type": "VEC3"
    },
    {
      "bufferView": 6,
      "componentType": 5126,
      "count": 15901,
      "type": "VEC3"
    },
    {
      "bufferView": 7,
      "componentType": 5126,
      "count": 15901,
      "type": "VEC2"
    }
  ],
  "asset": {
    "generator": "Substance Painter 2019.2.1",
    "version": "2.0"
  },
  "bufferViews": [
    {
      "buffer": 0,
      "byteLength": 250080,
      "target": 34963
    },
    {
      "buffer": 0,
      "byteLength": 149676,
      "byteOffset": 250080,
      "target": 34962
    },
    {
      "buffer": 0,
      "byteLength": 149676,
      "byteOffset": 399756,
      "target": 34962
    },
    {
      "buffer": 0,
      "byteLength": 99784,
      "byteOffset": 549432,
      "target": 34962
    },
    {
      "buffer": 0,
      "byteLength": 339264,
      "byteOffset": 649216,
      "target": 34963
    },
    {
      "buffer": 0,
      "byteLength": 190812,
      "byteOffset": 988480,
      "target": 34962
    },
    {
      "buffer": 0,
      "byteLength": 190812,
      "byteOffset": 1179292,
      "target": 34962
    },
    {
      "buffer": 0,
      "byteLength": 127208,
      "byteOffset": 1370104,
      "target": 34962
    }
  ],
  "buffers": [
    {
      "byteLength": 1497312,
      "uri": "Untitled.bin"
    }
  ],
  "images": [
    {
      "uri": "asdf1_Beta_HighLimbsGeoSG2_baseColor.png"
    },
    {
      "uri": "asdf1_Beta_HighLimbsGeoSG2_occlusionRoughnessMetallic.png"
    },
    {
      "uri": "asdf1_Beta_HighLimbsGeoSG2_normal.png"
    },
    {
      "uri": "Beta_Joints_MAT_baseColor.png"
    },
    {
      "uri": "Beta_Joints_MAT_occlusionRoughnessMetallic.png"
    },
    {
      "uri": "Beta_Joints_MAT_normal.png"
    }
  ],
  "materials": [
    {
      "alphaMode": "OPAQUE",
      "name": "asdf1_Beta_HighLimbsGeoSG2",
      "normalTexture": {
        "index": 2
      },
      "occlusionTexture": {
        "index": 1
      },
      "pbrMetallicRoughness": {
        "baseColorTexture": {
          "index": 0
        },
        "metallicRoughnessTexture": {
          "index": 1
        }
      }
    },
    {
      "alphaMode": "OPAQUE",
      "name": "Beta_Joints_MAT",
      "normalTexture": {
        "index": 5
      },
      "occlusionTexture": {
        "index": 4
      },
      "pbrMetallicRoughness": {
        "baseColorTexture": {
          "index": 3
        },
        "metallicRoughnessTexture": {
          "index": 4
        }
      }
    }
  ],
  "meshes": [
    {
      "name": "Beta_Joints",
      "primitives": [
        {
          "attributes": {
            "NORMAL": 2,
            "POSITION": 1,
            "TEXCOORD_0": 3
          },
          "indices": 0,
          "material": 1,
          "mode": 4
        }
      ]
    },
    {
      "name": "Beta_Surface",
      "primitives": [
        {
          "attributes": {
            "NORMAL": 6,
            "POSITION": 5,
            "TEXCOORD_0": 7
          },
          "indices": 4,
          "material": 0,
          "mode": 4
        }
      ]
    }
  ],
  "nodes": [
    {
      "children": [
        1,
        3
      ],
      "name": "root",
      "scale": [
        90.4640197753906,
        90.4640197753906,
        90.4640197753906
      ],
      "translation": [
        7.62939453125e-06,
        90.1409072875977,
        1.66093730926514
      ]
    },
    {
      "children": [
        2
      ],
      "name": "Beta_Joints"
    },
    {
      "mesh": 0,
      "name": "Beta_Joints"
    },
    {
      "children": [
        4
      ],
      "name": "Beta_Surface"
    },
    {
      "mesh": 1,
      "name": "Beta_Surface"
    }
  ],
  "samplers": [
    {
      "magFilter": 9729,
      "minFilter": 9985,
      "wrapS": 10497,
      "wrapT": 10497
    }
  ],
  "scene": 0,
  "scenes": [
    {
      "name": "Scene",
      "nodes": [
        0
      ]
    }
  ],
  "textures": [
    {
      "sampler": 0,
      "source": 0
    },
    {
      "sampler": 0,
      "source": 1
    },
    {
      "sampler": 0,
      "source": 2
    },
    {
      "sampler": 0,
      "source": 3
    },
    {
      "sampler": 0,
      "source": 4
    },
    {
      "sampler": 0,
      "source": 5
    }
  ]
}