{
    "asset" : {
        "generator" : "Khronos glTF Blender I/O v1.1.46",
        "version" : "2.0"
    },
    "scene" : 0,
    "scenes" : [
        {
            "name" : "Scene",
            "nodes" : [
                0,
                1,
                6
            ]
        }
    ],
    "nodes" : [
        {
            "name" : "Light",
            "rotation" : [
                0.16907575726509094,
                0.7558803558349609,
                -0.27217137813568115,
                0.570947527885437
            ],
            "translation" : [
                4.076245307922363,
                5.903861999511719,
                -1.0054539442062378
            ]
        },
        {
            "name" : "Camera",
            "rotation" : [
                0.483536034822464,
                0.33687159419059753,
                -0.20870360732078552,
                0.7804827094078064
            ],
            "translation" : [
                7.358891487121582,
                4.958309173583984,
                6.925790786743164
            ]
        },
        {
            "mesh" : 0,
            "name" : "Beta_Joints.001"
        },
        {
            "children" : [
                2
            ],
            "name" : "Beta_Joints"
        },
        {
            "mesh" : 1,
            "name" : "Beta_Surface.001"
        },
        {
            "children" : [
                4
            ],
            "name" : "Beta_Surface"
        },
        {
            "children" : [
                3,
                5
            ],
            "name" : "root",
            "rotation" : [
                0.7071068286895752,
                0,
                0,
                0.7071067690849304
            ],
            "scale" : [
                90.46401977539062,
                90.46402740478516,
                90.46402740478516
            ],
            "translation" : [
                7.62939453125e-06,
                90.14091491699219,
                1.66094970703125
            ]
        }
    ],
    "materials" : [
        {
            "emissiveFactor" : [
                0,
                0,
                0
            ],
            "name" : "Beta_Joints_MAT",
            "normalTexture" : {
                "index" : 0,
                "texCoord" : 0
            },
            "occlusionTexture" : {
                "index" : 1,
                "texCoord" : 0
            },
            "pbrMetallicRoughness" : {
                "baseColorTexture" : {
                    "index" : 2,
                    "texCoord" : 0
                },
                "metallicRoughnessTexture" : {
                    "index" : 1,
                    "texCoord" : 0
                }
            }
        },
        {
            "emissiveFactor" : [
                0,
                0,
                0
            ],
            "name" : "asdf1_Beta_HighLimbsGeoSG2",
            "normalTexture" : {
                "index" : 3,
                "texCoord" : 0
            },
            "occlusionTexture" : {
                "index" : 4,
                "texCoord" : 0
            },
            "pbrMetallicRoughness" : {
                "baseColorTexture" : {
                    "index" : 5,
                    "texCoord" : 0
                },
                "metallicRoughnessTexture" : {
                    "index" : 4,
                    "texCoord" : 0
                }
            }
        }
    ],
    "meshes" : [
        {
            "name" : "Beta_Joints",
            "primitives" : [
                {
                    "attributes" : {
                        "POSITION" : 0,
                        "NORMAL" : 1,
                        "TEXCOORD_0" : 2
                    },
                    "indices" : 3,
                    "material" : 0
                }
            ]
        },
        {
            "name" : "Beta_Surface",
            "primitives" : [
                {
                    "attributes" : {
                        "POSITION" : 4,
                        "NORMAL" : 5,
                        "TEXCOORD_0" : 6
                    },
                    "indices" : 7,
                    "material" : 1
                }
            ]
        }
    ],
    "textures" : [
        {
            "source" : 0
        },
        {
            "source" : 1
        },
        {
            "source" : 2
        },
        {
            "source" : 3
        },
        {
            "source" : 4
        },
        {
            "source" : 5
        }
    ],
    "images" : [
        {
            "mimeType" : "image/png",
            "name" : "Beta_Joints_MAT_normal",
            "uri" : "Beta_Joints_MAT_normal.png"
        },
        {
            "mimeType" : "image/png",
            "name" : "Beta_Joints_MAT_occlusionRoughnessMetallic",
            "uri" : "Beta_Joints_MAT_occlusionRoughnessMetallic.png"
        },
        {
            "mimeType" : "image/png",
            "name" : "Beta_Joints_MAT_baseColor",
            "uri" : "Beta_Joints_MAT_baseColor.png"
        },
        {
            "mimeType" : "image/png",
            "name" : "asdf1_Beta_HighLimbsGeoSG2_normal",
            "uri" : "asdf1_Beta_HighLimbsGeoSG2_normal.png"
        },
        {
            "mimeType" : "image/png",
            "name" : "asdf1_Beta_HighLimbsGeoSG2_occlusionRoughnessMetallic",
            "uri" : "asdf1_Beta_HighLimbsGeoSG2_occlusionRoughnessMetallic.png"
        },
        {
            "mimeType" : "image/png",
            "name" : "asdf1_Beta_HighLimbsGeoSG2_baseColor",
            "uri" : "asdf1_Beta_HighLimbsGeoSG2_baseColor.png"
        }
    ],
    "accessors" : [
        {
            "bufferView" : 0,
            "componentType" : 5126,
            "count" : 12473,
            "max" : [
                0.9765947461128235,
                0.12560516595840454,
                0.9999999403953552
            ],
            "min" : [
                -0.9765948057174683,
                -0.15619128942489624,
                -0.7651651501655579
            ],
            "type" : "VEC3"
        },
        {
            "bufferView" : 1,
            "componentType" : 5126,
            "count" : 12473,
            "type" : "VEC3"
        },
        {
            "bufferView" : 2,
            "componentType" : 5126,
            "count" : 12473,
            "type" : "VEC2"
        },
        {
            "bufferView" : 3,
            "componentType" : 5123,
            "count" : 62520,
            "type" : "SCALAR"
        },
        {
            "bufferView" : 4,
            "componentType" : 5126,
            "count" : 15901,
            "max" : [
                0.9977071285247803,
                0.1772514283657074,
                0.999967634677887
            ],
            "min" : [
                -0.997707188129425,
                -0.17725145816802979,
                -0.9999998807907104
            ],
            "type" : "VEC3"
        },
        {
            "bufferView" : 5,
            "componentType" : 5126,
            "count" : 15901,
            "type" : "VEC3"
        },
        {
            "bufferView" : 6,
            "componentType" : 5126,
            "count" : 15901,
            "type" : "VEC2"
        },
        {
            "bufferView" : 7,
            "componentType" : 5123,
            "count" : 84816,
            "type" : "SCALAR"
        }
    ],
    "bufferViews" : [
        {
            "buffer" : 0,
            "byteLength" : 149676,
            "byteOffset" : 0
        },
        {
            "buffer" : 0,
            "byteLength" : 149676,
            "byteOffset" : 149676
        },
        {
            "buffer" : 0,
            "byteLength" : 99784,
            "byteOffset" : 299352
        },
        {
            "buffer" : 0,
            "byteLength" : 125040,
            "byteOffset" : 399136
        },
        {
            "buffer" : 0,
            "byteLength" : 190812,
            "byteOffset" : 524176
        },
        {
            "buffer" : 0,
            "byteLength" : 190812,
            "byteOffset" : 714988
        },
        {
            "buffer" : 0,
            "byteLength" : 127208,
            "byteOffset" : 905800
        },
        {
            "buffer" : 0,
            "byteLength" : 169632,
            "byteOffset" : 1033008
        }
    ],
    "buffers" : [
        {
            "byteLength" : 1202640,
            "uri" : "zen.bin"
        }
    ]
}
